<svg xmlns="http://www.w3.org/2000/svg" xmlns:xlink="http://www.w3.org/1999/xlink" width="1240" height="711.3"><rect width="1240" height="711.3" rx="5" ry="5" class="a"/><svg y="0%" x="0%"><circle cx="20" cy="20" r="6" fill="#ff5f58"/><circle cx="40" cy="20" r="6" fill="#ffbd2e"/><circle cx="60" cy="20" r="6" fill="#18c132"/></svg><svg height="651.3" viewBox="0 0 120 65.13" width="1200" x="15" xmlns="http://www.w3.org/2000/svg" xmlns:xlink="http://www.w3.org/1999/xlink" y="50"><style>@keyframes k{0%{transform:translateX(0)}.2%{transform:translateX(-120px)}8.8%{transform:translateX(-600px)}20.1%{transform:translateX(-720px)}20.4%{transform:translateX(-1080px)}20.5%{transform:translateX(-1200px)}83.1%{transform:translateX(-1320px)}89%{transform:translateX(-1440px)}92.2%{transform:translateX(-1560px)}95.5%{transform:translateX(-1680px)}to{transform:translateX(-1920px)}}.a{fill:#282d35}.f,.g,.h{white-space:pre}.f{fill:#a8cc8c;font-weight:700}.g,.h{fill:#b9c0cb}.h{fill:#71bef2;font-weight:700}</style><g font-family="Monaco,Consolas,Menlo,'Bitstream Vera Sans Mono','Powerline Symbols',monospace" font-size="1.67"><defs><symbol id="1"><text y="1.67" class="f">oxana@DESKTOP-CJF4GJT</text><text x="21.042" y="1.67" class="g">:</text><text x="22.044" y="1.67" class="h">~/python-project-50</text><text x="41.082" y="1.67" class="g">$</text></symbol><symbol id="2"><text y="1.67" class="f">oxana@DESKTOP-CJF4GJT</text><text x="21.042" y="1.67" class="g">:</text><text x="22.044" y="1.67" class="h">~/python-project-50</text><text x="41.082" y="1.67" class="g">$</text><text x="43.086" y="1.67" class="g">uv</text><text x="46.092" y="1.67" class="g">run</text><text x="50.1" y="1.67" class="g">gendiff</text><text x="58.116" y="1.67" class="g">--format</text><text x="67.134" y="1.67" class="g">json</text><text x="72.144" y="1.67" class="g">&apos;gendiff/files/file1.json&apos;</text><text x="99.198" y="1.67" class="g">&apos;gendiff/files/file2.</text></symbol><symbol id="3"><text y="1.67" class="g">json&apos;</text></symbol><symbol id="4"><text x="12.024" y="1.67" class="g">},</text></symbol><symbol id="5"><text x="16.032" y="1.67" class="g">&quot;status&quot;:</text><text x="26.052" y="1.67" class="g">&quot;change&quot;,</text></symbol><symbol id="6"><text x="16.032" y="1.67" class="g">&quot;value&quot;:</text><text x="25.05" y="1.67" class="g">{</text></symbol><symbol id="7"><text x="20.04" y="1.67" class="g">},</text></symbol><symbol id="8"><text x="16.032" y="1.67" class="g">},</text></symbol><symbol id="9"><text x="16.032" y="1.67" class="g">&quot;status&quot;:</text><text x="26.052" y="1.67" class="g">&quot;add&quot;,</text></symbol><symbol id="10"><text x="28.056" y="1.67" class="g">},</text></symbol><symbol id="11"><text x="4.008" y="1.67" class="g">},</text></symbol><symbol id="12"><text x="8.016" y="1.67" class="g">&quot;value&quot;:</text><text x="17.034" y="1.67" class="g">{</text></symbol><symbol id="13"><text x="20.04" y="1.67" class="g">&quot;old_value&quot;:</text><text x="33.066" y="1.67" class="g">{</text></symbol><symbol id="14"><text x="24.048" y="1.67" class="g">&quot;key&quot;:</text><text x="31.062" y="1.67" class="g">&quot;value&quot;,</text></symbol><symbol id="15"><text x="24.048" y="1.67" class="g">},</text></symbol><symbol id="16"><text x="20.04" y="1.67" class="g">&quot;new_value&quot;:</text><text x="33.066" y="1.67" class="g">&quot;str&quot;,</text></symbol><symbol id="17"><text x="4.008" y="1.67" class="g">&quot;group2&quot;:</text><text x="14.028" y="1.67" class="g">{</text></symbol><symbol id="18"><text x="8.016" y="1.67" class="g">&quot;status&quot;:</text><text x="18.036" y="1.67" class="g">&quot;remove&quot;,</text></symbol><symbol id="19"><text x="12.024" y="1.67" class="g">&quot;abc&quot;:</text><text x="19.038" y="1.67" class="g">12345,</text></symbol><symbol id="20"><text x="12.024" y="1.67" class="g">&quot;deep&quot;:</text><text x="20.04" y="1.67" class="g">{</text></symbol><symbol id="21"><text x="20.04" y="1.67" class="g">&quot;id&quot;:</text><text x="26.052" y="1.67" class="g">45,</text></symbol><symbol id="22"><text x="4.008" y="1.67" class="g">&quot;group3&quot;:</text><text x="14.028" y="1.67" class="g">{</text></symbol><symbol id="23"><text x="8.016" y="1.67" class="g">&quot;status&quot;:</text><text x="18.036" y="1.67" class="g">&quot;add&quot;,</text></symbol><symbol id="24"><text x="20.04" y="1.67" class="g">&quot;id&quot;:</text><text x="26.052" y="1.67" class="g">{</text></symbol><symbol id="25"><text x="28.056" y="1.67" class="g">&quot;number&quot;:</text><text x="38.076" y="1.67" class="g">45,</text></symbol><symbol id="26"><text x="12.024" y="1.67" class="g">&quot;fee&quot;:</text><text x="19.038" y="1.67" class="g">100500,</text></symbol><symbol id="27"><text y="1.67" class="g">}</text></symbol><symbol id="28"><text y="1.67" class="f">oxana@DESKTOP-CJF4GJT</text><text x="21.042" y="1.67" class="g">:</text><text x="22.044" y="1.67" class="h">~/python-project-50</text><text x="41.082" y="1.67" class="g">$</text><text x="43.086" y="1.67" class="g">exit</text></symbol><symbol id="a"><path fill="transparent" d="M0 0h120v30H0z"/></symbol><symbol id="b"><path fill="#6f7683" d="M0 0h1.102v2.171H0z"/></symbol></defs><path class="a" d="M0 0h120v65.13H0z"/><g style="animation-duration:10.59126s;animation-iteration-count:infinite;animation-name:k;animation-timing-function:steps(1,end)"><svg width="2040"><svg><use xlink:href="#a"/><use xlink:href="#b" x="-.004"/></svg><svg x="120"><use xlink:href="#a"/><use xlink:href="#b" x="42.996"/><use xlink:href="#1"/></svg><svg x="240"><use xlink:href="#a"/><use xlink:href="#b" x="66.996"/><text y="1.67" class="f">oxana@DESKTOP-CJF4GJT</text><text x="21.042" y="1.67" class="g">:</text><text x="22.044" y="1.67" class="h">~/python-project-50</text><text x="41.082" y="1.67" class="g">$</text><text x="43.086" y="1.67" class="g">uv</text><text x="46.092" y="1.67" class="g">run</text><text x="50.1" y="1.67" class="g">gendiff</text><text x="58.116" y="1.67" class="g">--format</text></svg><svg x="360"><use xlink:href="#a"/><use xlink:href="#b" x="90.996"/><text y="1.67" class="f">oxana@DESKTOP-CJF4GJT</text><text x="21.042" y="1.67" class="g">:</text><text x="22.044" y="1.67" class="h">~/python-project-50</text><text x="41.082" y="1.67" class="g">$</text><text x="43.086" y="1.67" class="g">uv</text><text x="46.092" y="1.67" class="g">run</text><text x="50.1" y="1.67" class="g">gendiff</text><text x="58.116" y="1.67" class="g">--format</text><text x="67.134" y="1.67" class="g">json</text><text x="72.144" y="1.67" class="g">&apos;gendiff/files/file</text></svg><svg x="480"><use xlink:href="#a"/><use xlink:href="#b" x="106.996"/><text y="1.67" class="f">oxana@DESKTOP-CJF4GJT</text><text x="21.042" y="1.67" class="g">:</text><text x="22.044" y="1.67" class="h">~/python-project-50</text><text x="41.082" y="1.67" class="g">$</text><text x="43.086" y="1.67" class="g">uv</text><text x="46.092" y="1.67" class="g">run</text><text x="50.1" y="1.67" class="g">gendiff</text><text x="58.116" y="1.67" class="g">--format</text><text x="67.134" y="1.67" class="g">json</text><text x="72.144" y="1.67" class="g">&apos;gendiff/files/file1.json&apos;</text><text x="99.198" y="1.67" class="g">&apos;gendiff</text></svg><svg x="600"><use xlink:href="#a"/><use xlink:href="#b" x="4.996" y="2.146"/><use xlink:href="#2"/><use xlink:href="#3" y="2.171"/></svg><svg x="720"><use xlink:href="#a"/><use xlink:href="#b" x="-.004" y="4.317"/><use xlink:href="#2"/><use xlink:href="#3" y="2.171"/></svg><svg x="840"><use xlink:href="#a"/><use xlink:href="#b" x="-.004" y="62.934"/><text x="12.024" y="1.67" class="g">&quot;setting1&quot;:</text><text x="24.048" y="1.67" class="g">{</text><text x="16.032" y="3.841" class="g">&quot;status&quot;:</text><text x="26.052" y="3.841" class="g">&quot;unchange&quot;,</text><text x="16.032" y="6.012" class="g">&quot;value&quot;:</text><text x="25.05" y="6.012" class="g">&quot;Value</text><text x="32.064" y="6.012" class="g">1&quot;,</text><use xlink:href="#4" y="6.513"/><text x="12.024" y="10.354" class="g">&quot;setting2&quot;:</text><text x="24.048" y="10.354" class="g">{</text><text x="16.032" y="12.525" class="g">&quot;status&quot;:</text><text x="26.052" y="12.525" class="g">&quot;remove&quot;,</text><text x="16.032" y="14.696" class="g">&quot;value&quot;:</text><text x="25.05" y="14.696" class="g">200,</text><use xlink:href="#4" y="15.197"/><text x="12.024" y="19.038" class="g">&quot;setting3&quot;:</text><text x="24.048" y="19.038" class="g">{</text><use xlink:href="#5" y="19.539"/><use xlink:href="#6" y="21.71"/><text x="20.04" y="25.551" class="g">&quot;old_value&quot;:</text><text x="33.066" y="25.551" class="g">true,</text><text x="20.04" y="27.722" class="g">&quot;new_value&quot;:</text><text x="33.066" y="27.722" class="g">null,</text><use xlink:href="#7" y="28.223"/><use xlink:href="#8" y="30.394"/><use xlink:href="#4" y="32.565"/><text x="12.024" y="36.406" class="g">&quot;setting4&quot;:</text><text x="24.048" y="36.406" class="g">{</text><use xlink:href="#9" y="36.907"/><text x="16.032" y="40.748" class="g">&quot;value&quot;:</text><text x="25.05" y="40.748" class="g">&quot;blah</text><text x="31.062" y="40.748" class="g">blah&quot;,</text><use xlink:href="#4" y="41.249"/><text x="12.024" y="45.09" class="g">&quot;setting5&quot;:</text><text x="24.048" y="45.09" class="g">{</text><use xlink:href="#9" y="45.591"/><use xlink:href="#6" y="47.762"/><text x="20.04" y="51.603" class="g">&quot;key5&quot;:</text><text x="28.056" y="51.603" class="g">&quot;value5&quot;,</text><use xlink:href="#7" y="52.104"/><use xlink:href="#4" y="54.275"/><text x="12.024" y="58.116" class="g">&quot;setting6&quot;:</text><text x="24.048" y="58.116" class="g">{</text><text x="16.032" y="60.287" class="g">&quot;status&quot;:</text><text x="26.052" y="60.287" class="g">&quot;child&quot;,</text><use xlink:href="#6" y="60.788"/></svg><svg x="960"><use xlink:href="#a"/><use xlink:href="#b" x="21.996" y="62.934"/><text x="20.04" y="1.67" class="g">&quot;doge&quot;:</text><text x="28.056" y="1.67" class="g">{</text><text x="24.048" y="3.841" class="g">&quot;status&quot;:</text><text x="34.068" y="3.841" class="g">&quot;child&quot;,</text><text x="24.048" y="6.012" class="g">&quot;value&quot;:</text><text x="33.066" y="6.012" class="g">{</text><text x="28.056" y="8.183" class="g">&quot;wow&quot;:</text><text x="35.07" y="8.183" class="g">{</text><text x="32.064" y="10.354" class="g">&quot;status&quot;:</text><text x="42.084" y="10.354" class="g">&quot;change&quot;,</text><text x="32.064" y="12.525" class="g">&quot;value&quot;:</text><text x="41.082" y="12.525" class="g">{</text><text x="36.072" y="14.696" class="g">&quot;old_value&quot;:</text><text x="49.098" y="14.696" class="g">&quot;&quot;,</text><text x="36.072" y="16.867" class="g">&quot;new_value&quot;:</text><text x="49.098" y="16.867" class="g">&quot;so</text><text x="53.106" y="16.867" class="g">much&quot;,</text><text x="36.072" y="19.038" class="g">},</text><text x="32.064" y="21.209" class="g">},</text><use xlink:href="#10" y="21.71"/><use xlink:href="#7" y="23.881"/><text x="20.04" y="27.722" class="g">&quot;key&quot;:</text><text x="27.054" y="27.722" class="g">{</text><text x="24.048" y="29.893" class="g">&quot;status&quot;:</text><text x="34.068" y="29.893" class="g">&quot;unchange&quot;,</text><text x="24.048" y="32.064" class="g">&quot;value&quot;:</text><text x="33.066" y="32.064" class="g">&quot;value&quot;,</text><use xlink:href="#7" y="32.565"/><text x="20.04" y="36.406" class="g">&quot;ops&quot;:</text><text x="27.054" y="36.406" class="g">{</text><text x="24.048" y="38.577" class="g">&quot;status&quot;:</text><text x="34.068" y="38.577" class="g">&quot;add&quot;,</text><text x="24.048" y="40.748" class="g">&quot;value&quot;:</text><text x="33.066" y="40.748" class="g">&quot;vops&quot;,</text><use xlink:href="#7" y="41.249"/><use xlink:href="#4" y="43.42"/><use xlink:href="#11" y="45.591"/><text x="4.008" y="49.432" class="g">&quot;group1&quot;:</text><text x="14.028" y="49.432" class="g">{</text><text x="8.016" y="51.603" class="g">&quot;status&quot;:</text><text x="18.036" y="51.603" class="g">&quot;child&quot;,</text><use xlink:href="#12" y="52.104"/><text x="12.024" y="55.945" class="g">&quot;baz&quot;:</text><text x="19.038" y="55.945" class="g">{</text><use xlink:href="#5" y="56.446"/><use xlink:href="#6" y="58.617"/><text x="20.04" y="62.458" class="g">&quot;old_value&quot;:</text><text x="33.066" y="62.458" class="g">&quot;bas&quot;,</text><text x="20.04" y="64.629" class="g">&quot;n</text></svg><svg x="1080"><use xlink:href="#a"/><use xlink:href="#b" x="-.004" y="62.934"/><use xlink:href="#13"/><use xlink:href="#14" y="2.171"/><use xlink:href="#15" y="4.342"/><use xlink:href="#16" y="6.513"/><use xlink:href="#7" y="8.684"/><use xlink:href="#8" y="10.855"/><use xlink:href="#4" y="13.026"/><use xlink:href="#11" y="15.197"/><use xlink:href="#17" y="17.368"/><use xlink:href="#18" y="19.539"/><use xlink:href="#12" y="21.71"/><use xlink:href="#19" y="23.881"/><use xlink:href="#20" y="26.052"/><use xlink:href="#21" y="28.223"/><use xlink:href="#7" y="30.394"/><use xlink:href="#4" y="32.565"/><use xlink:href="#11" y="34.736"/><use xlink:href="#22" y="36.907"/><use xlink:href="#23" y="39.078"/><use xlink:href="#12" y="41.249"/><use xlink:href="#20" y="43.42"/><use xlink:href="#24" y="45.591"/><use xlink:href="#25" y="47.762"/><use xlink:href="#10" y="49.933"/><use xlink:href="#7" y="52.104"/><use xlink:href="#26" y="54.275"/><use xlink:href="#4" y="56.446"/><use xlink:href="#11" y="58.617"/><use xlink:href="#27" y="60.788"/></svg><svg x="1200"><use xlink:href="#a"/><use xlink:href="#b" x="42.996" y="62.934"/><use xlink:href="#13"/><use xlink:href="#14" y="2.171"/><use xlink:href="#15" y="4.342"/><use xlink:href="#16" y="6.513"/><use xlink:href="#7" y="8.684"/><use xlink:href="#8" y="10.855"/><use xlink:href="#4" y="13.026"/><use xlink:href="#11" y="15.197"/><use xlink:href="#17" y="17.368"/><use xlink:href="#18" y="19.539"/><use xlink:href="#12" y="21.71"/><use xlink:href="#19" y="23.881"/><use xlink:href="#20" y="26.052"/><use xlink:href="#21" y="28.223"/><use xlink:href="#7" y="30.394"/><use xlink:href="#4" y="32.565"/><use xlink:href="#11" y="34.736"/><use xlink:href="#22" y="36.907"/><use xlink:href="#23" y="39.078"/><use xlink:href="#12" y="41.249"/><use xlink:href="#20" y="43.42"/><use xlink:href="#24" y="45.591"/><use xlink:href="#25" y="47.762"/><use xlink:href="#10" y="49.933"/><use xlink:href="#7" y="52.104"/><use xlink:href="#26" y="54.275"/><use xlink:href="#4" y="56.446"/><use xlink:href="#11" y="58.617"/><use xlink:href="#27" y="60.788"/><use xlink:href="#1" y="62.959"/></svg><svg x="1320"><use xlink:href="#a"/><use xlink:href="#b" x="43.996" y="62.934"/><use xlink:href="#13"/><use xlink:href="#14" y="2.171"/><use xlink:href="#15" y="4.342"/><use xlink:href="#16" y="6.513"/><use xlink:href="#7" y="8.684"/><use xlink:href="#8" y="10.855"/><use xlink:href="#4" y="13.026"/><use xlink:href="#11" y="15.197"/><use xlink:href="#17" y="17.368"/><use xlink:href="#18" y="19.539"/><use xlink:href="#12" y="21.71"/><use xlink:href="#19" y="23.881"/><use xlink:href="#20" y="26.052"/><use xlink:href="#21" y="28.223"/><use xlink:href="#7" y="30.394"/><use xlink:href="#4" y="32.565"/><use xlink:href="#11" y="34.736"/><use xlink:href="#22" y="36.907"/><use xlink:href="#23" y="39.078"/><use xlink:href="#12" y="41.249"/><use xlink:href="#20" y="43.42"/><use xlink:href="#24" y="45.591"/><use xlink:href="#25" y="47.762"/><use xlink:href="#10" y="49.933"/><use xlink:href="#7" y="52.104"/><use xlink:href="#26" y="54.275"/><use xlink:href="#4" y="56.446"/><use xlink:href="#11" y="58.617"/><use xlink:href="#27" y="60.788"/><text y="64.629" class="f">oxana@DESKTOP-CJF4GJT</text><text x="21.042" y="64.629" class="g">:</text><text x="22.044" y="64.629" class="h">~/python-project-50</text><text x="41.082" y="64.629" class="g">$</text><text x="43.086" y="64.629" class="g">e</text></svg><svg x="1440"><use xlink:href="#a"/><use xlink:href="#b" x="44.996" y="62.934"/><use xlink:href="#13"/><use xlink:href="#14" y="2.171"/><use xlink:href="#15" y="4.342"/><use xlink:href="#16" y="6.513"/><use xlink:href="#7" y="8.684"/><use xlink:href="#8" y="10.855"/><use xlink:href="#4" y="13.026"/><use xlink:href="#11" y="15.197"/><use xlink:href="#17" y="17.368"/><use xlink:href="#18" y="19.539"/><use xlink:href="#12" y="21.71"/><use xlink:href="#19" y="23.881"/><use xlink:href="#20" y="26.052"/><use xlink:href="#21" y="28.223"/><use xlink:href="#7" y="30.394"/><use xlink:href="#4" y="32.565"/><use xlink:href="#11" y="34.736"/><use xlink:href="#22" y="36.907"/><use xlink:href="#23" y="39.078"/><use xlink:href="#12" y="41.249"/><use xlink:href="#20" y="43.42"/><use xlink:href="#24" y="45.591"/><use xlink:href="#25" y="47.762"/><use xlink:href="#10" y="49.933"/><use xlink:href="#7" y="52.104"/><use xlink:href="#26" y="54.275"/><use xlink:href="#4" y="56.446"/><use xlink:href="#11" y="58.617"/><use xlink:href="#27" y="60.788"/><text y="64.629" class="f">oxana@DESKTOP-CJF4GJT</text><text x="21.042" y="64.629" class="g">:</text><text x="22.044" y="64.629" class="h">~/python-project-50</text><text x="41.082" y="64.629" class="g">$</text><text x="43.086" y="64.629" class="g">ex</text></svg><svg x="1560"><use xlink:href="#a"/><use xlink:href="#b" x="45.996" y="62.934"/><use xlink:href="#13"/><use xlink:href="#14" y="2.171"/><use xlink:href="#15" y="4.342"/><use xlink:href="#16" y="6.513"/><use xlink:href="#7" y="8.684"/><use xlink:href="#8" y="10.855"/><use xlink:href="#4" y="13.026"/><use xlink:href="#11" y="15.197"/><use xlink:href="#17" y="17.368"/><use xlink:href="#18" y="19.539"/><use xlink:href="#12" y="21.71"/><use xlink:href="#19" y="23.881"/><use xlink:href="#20" y="26.052"/><use xlink:href="#21" y="28.223"/><use xlink:href="#7" y="30.394"/><use xlink:href="#4" y="32.565"/><use xlink:href="#11" y="34.736"/><use xlink:href="#22" y="36.907"/><use xlink:href="#23" y="39.078"/><use xlink:href="#12" y="41.249"/><use xlink:href="#20" y="43.42"/><use xlink:href="#24" y="45.591"/><use xlink:href="#25" y="47.762"/><use xlink:href="#10" y="49.933"/><use xlink:href="#7" y="52.104"/><use xlink:href="#26" y="54.275"/><use xlink:href="#4" y="56.446"/><use xlink:href="#11" y="58.617"/><use xlink:href="#27" y="60.788"/><text y="64.629" class="f">oxana@DESKTOP-CJF4GJT</text><text x="21.042" y="64.629" class="g">:</text><text x="22.044" y="64.629" class="h">~/python-project-50</text><text x="41.082" y="64.629" class="g">$</text><text x="43.086" y="64.629" class="g">exi</text></svg><svg x="1680"><use xlink:href="#a"/><use xlink:href="#b" x="46.996" y="62.934"/><use xlink:href="#13"/><use xlink:href="#14" y="2.171"/><use xlink:href="#15" y="4.342"/><use xlink:href="#16" y="6.513"/><use xlink:href="#7" y="8.684"/><use xlink:href="#8" y="10.855"/><use xlink:href="#4" y="13.026"/><use xlink:href="#11" y="15.197"/><use xlink:href="#17" y="17.368"/><use xlink:href="#18" y="19.539"/><use xlink:href="#12" y="21.71"/><use xlink:href="#19" y="23.881"/><use xlink:href="#20" y="26.052"/><use xlink:href="#21" y="28.223"/><use xlink:href="#7" y="30.394"/><use xlink:href="#4" y="32.565"/><use xlink:href="#11" y="34.736"/><use xlink:href="#22" y="36.907"/><use xlink:href="#23" y="39.078"/><use xlink:href="#12" y="41.249"/><use xlink:href="#20" y="43.42"/><use xlink:href="#24" y="45.591"/><use xlink:href="#25" y="47.762"/><use xlink:href="#10" y="49.933"/><use xlink:href="#7" y="52.104"/><use xlink:href="#26" y="54.275"/><use xlink:href="#4" y="56.446"/><use xlink:href="#11" y="58.617"/><use xlink:href="#27" y="60.788"/><use xlink:href="#28" y="62.959"/></svg><svg x="1800"><use xlink:href="#a"/><use xlink:href="#b" x="-.004" y="62.934"/><use xlink:href="#14"/><use xlink:href="#15" y="2.171"/><use xlink:href="#16" y="4.342"/><use xlink:href="#7" y="6.513"/><use xlink:href="#8" y="8.684"/><use xlink:href="#4" y="10.855"/><use xlink:href="#11" y="13.026"/><use xlink:href="#17" y="15.197"/><use xlink:href="#18" y="17.368"/><use xlink:href="#12" y="19.539"/><use xlink:href="#19" y="21.71"/><use xlink:href="#20" y="23.881"/><use xlink:href="#21" y="26.052"/><use xlink:href="#7" y="28.223"/><use xlink:href="#4" y="30.394"/><use xlink:href="#11" y="32.565"/><use xlink:href="#22" y="34.736"/><use xlink:href="#23" y="36.907"/><use xlink:href="#12" y="39.078"/><use xlink:href="#20" y="41.249"/><use xlink:href="#24" y="43.42"/><use xlink:href="#25" y="45.591"/><use xlink:href="#10" y="47.762"/><use xlink:href="#7" y="49.933"/><use xlink:href="#26" y="52.104"/><use xlink:href="#4" y="54.275"/><use xlink:href="#11" y="56.446"/><use xlink:href="#27" y="58.617"/><use xlink:href="#28" y="60.788"/></svg><svg x="1920"><use xlink:href="#a"/><use xlink:href="#b" x="-.004" y="62.934"/><use xlink:href="#15"/><use xlink:href="#16" y="2.171"/><use xlink:href="#7" y="4.342"/><use xlink:href="#8" y="6.513"/><use xlink:href="#4" y="8.684"/><use xlink:href="#11" y="10.855"/><use xlink:href="#17" y="13.026"/><use xlink:href="#18" y="15.197"/><use xlink:href="#12" y="17.368"/><use xlink:href="#19" y="19.539"/><use xlink:href="#20" y="21.71"/><use xlink:href="#21" y="23.881"/><use xlink:href="#7" y="26.052"/><use xlink:href="#4" y="28.223"/><use xlink:href="#11" y="30.394"/><use xlink:href="#22" y="32.565"/><use xlink:href="#23" y="34.736"/><use xlink:href="#12" y="36.907"/><use xlink:href="#20" y="39.078"/><use xlink:href="#24" y="41.249"/><use xlink:href="#25" y="43.42"/><use xlink:href="#10" y="45.591"/><use xlink:href="#7" y="47.762"/><use xlink:href="#26" y="49.933"/><use xlink:href="#4" y="52.104"/><use xlink:href="#11" y="54.275"/><use xlink:href="#27" y="56.446"/><use xlink:href="#28" y="58.617"/><text y="62.458" class="g">exit</text></svg></svg></g></g></svg></svg>