<svg xmlns="http://www.w3.org/2000/svg" xmlns:xlink="http://www.w3.org/1999/xlink" width="1240" height="711.3"><rect width="1240" height="711.3" rx="5" ry="5" class="a"/><svg y="0%" x="0%"><circle cx="20" cy="20" r="6" fill="#ff5f58"/><circle cx="40" cy="20" r="6" fill="#ffbd2e"/><circle cx="60" cy="20" r="6" fill="#18c132"/></svg><svg height="651.3" viewBox="0 0 120 65.13" width="1200" x="15" xmlns="http://www.w3.org/2000/svg" xmlns:xlink="http://www.w3.org/1999/xlink" y="50"><style>@keyframes k{0%{transform:translateX(0)}.1%{transform:translateX(-120px)}54.2%{transform:translateX(-240px)}54.3%{transform:translateX(-600px)}60.6%{transform:translateX(-720px)}61.6%{transform:translateX(-960px)}78.7%{transform:translateX(-1080px)}89.8%{transform:translateX(-1200px)}92%{transform:translateX(-1320px)}94.4%{transform:translateX(-1440px)}to{transform:translateX(-1680px)}}.a{fill:#282d35}.f,.g,.h{white-space:pre}.f{fill:#a8cc8c;font-weight:700}.g,.h{fill:#b9c0cb}.h{fill:#71bef2;font-weight:700}</style><g font-family="Monaco,Consolas,Menlo,'Bitstream Vera Sans Mono','Powerline Symbols',monospace" font-size="1.67"><defs><symbol id="1"><text y="1.67" class="f">oxana@DESKTOP-CJF4GJT</text><text x="21.042" y="1.67" class="g">:</text><text x="22.044" y="1.67" class="h">~/python-project-50</text><text x="41.082" y="1.67" class="g">$</text></symbol><symbol id="2"><text y="1.67" class="f">oxana@DESKTOP-CJF4GJT</text><text x="21.042" y="1.67" class="g">:</text><text x="22.044" y="1.67" class="h">~/python-project-50</text><text x="41.082" y="1.67" class="g">$</text><text x="43.086" y="1.67" class="g">uv</text><text x="46.092" y="1.67" class="g">run</text><text x="50.1" y="1.67" class="g">gendiff</text><text x="58.116" y="1.67" class="g">--format</text><text x="67.134" y="1.67" class="g">plain</text><text x="73.146" y="1.67" class="g">&apos;gendiff/files/file1.json&apos;</text><text x="100.2" y="1.67" class="g">&apos;gendiff/files/file2</text></symbol><symbol id="3"><text y="1.67" class="g">.json&apos;</text></symbol><symbol id="4"><text y="1.67" class="g">Property</text><text x="9.018" y="1.67" class="g">&apos;common.follow&apos;</text><text x="25.05" y="1.67" class="g">was</text><text x="29.058" y="1.67" class="g">added</text><text x="35.07" y="1.67" class="g">with</text><text x="40.08" y="1.67" class="g">value:</text><text x="47.094" y="1.67" class="g">false</text></symbol><symbol id="5"><text y="1.67" class="g">Property</text><text x="9.018" y="1.67" class="g">&apos;common.setting2&apos;</text><text x="27.054" y="1.67" class="g">was</text><text x="31.062" y="1.67" class="g">removed</text></symbol><symbol id="6"><text y="1.67" class="g">Property</text><text x="9.018" y="1.67" class="g">&apos;common.setting3&apos;</text><text x="27.054" y="1.67" class="g">was</text><text x="31.062" y="1.67" class="g">updated.</text><text x="40.08" y="1.67" class="g">From</text><text x="45.09" y="1.67" class="g">true</text><text x="50.1" y="1.67" class="g">to</text><text x="53.106" y="1.67" class="g">null</text></symbol><symbol id="7"><text y="1.67" class="g">Property</text><text x="9.018" y="1.67" class="g">&apos;common.setting4&apos;</text><text x="27.054" y="1.67" class="g">was</text><text x="31.062" y="1.67" class="g">added</text><text x="37.074" y="1.67" class="g">with</text><text x="42.084" y="1.67" class="g">value:</text><text x="49.098" y="1.67" class="g">&apos;blah</text><text x="55.11" y="1.67" class="g">blah&apos;</text></symbol><symbol id="8"><text y="1.67" class="g">Property</text><text x="9.018" y="1.67" class="g">&apos;common.setting5&apos;</text><text x="27.054" y="1.67" class="g">was</text><text x="31.062" y="1.67" class="g">added</text><text x="37.074" y="1.67" class="g">with</text><text x="42.084" y="1.67" class="g">value:</text><text x="49.098" y="1.67" class="g">[complex</text><text x="58.116" y="1.67" class="g">value]</text></symbol><symbol id="9"><text y="1.67" class="g">Property</text><text x="9.018" y="1.67" class="g">&apos;common.setting6.doge.wow&apos;</text><text x="36.072" y="1.67" class="g">was</text><text x="40.08" y="1.67" class="g">updated.</text><text x="49.098" y="1.67" class="g">From</text><text x="54.108" y="1.67" class="g">&apos;&apos;</text><text x="57.114" y="1.67" class="g">to</text><text x="60.12" y="1.67" class="g">&apos;so</text><text x="64.128" y="1.67" class="g">much&apos;</text></symbol><symbol id="10"><text y="1.67" class="g">Property</text><text x="9.018" y="1.67" class="g">&apos;common.setting6.ops&apos;</text><text x="31.062" y="1.67" class="g">was</text><text x="35.07" y="1.67" class="g">added</text><text x="41.082" y="1.67" class="g">with</text><text x="46.092" y="1.67" class="g">value:</text><text x="53.106" y="1.67" class="g">&apos;vops&apos;</text></symbol><symbol id="11"><text y="1.67" class="g">Property</text><text x="9.018" y="1.67" class="g">&apos;group1.baz&apos;</text><text x="22.044" y="1.67" class="g">was</text><text x="26.052" y="1.67" class="g">updated.</text><text x="35.07" y="1.67" class="g">From</text><text x="40.08" y="1.67" class="g">&apos;bas&apos;</text><text x="46.092" y="1.67" class="g">to</text><text x="49.098" y="1.67" class="g">&apos;bars&apos;</text></symbol><symbol id="12"><text y="1.67" class="g">Property</text><text x="9.018" y="1.67" class="g">&apos;group1.nest&apos;</text><text x="23.046" y="1.67" class="g">was</text><text x="27.054" y="1.67" class="g">updated.</text><text x="36.072" y="1.67" class="g">From</text><text x="41.082" y="1.67" class="g">[complex</text><text x="50.1" y="1.67" class="g">value]</text><text x="57.114" y="1.67" class="g">to</text><text x="60.12" y="1.67" class="g">&apos;str&apos;</text></symbol><symbol id="13"><text y="1.67" class="g">Property</text><text x="9.018" y="1.67" class="g">&apos;group2&apos;</text><text x="18.036" y="1.67" class="g">was</text><text x="22.044" y="1.67" class="g">removed</text></symbol><symbol id="14"><text y="1.67" class="g">Property</text><text x="9.018" y="1.67" class="g">&apos;group3&apos;</text><text x="18.036" y="1.67" class="g">was</text><text x="22.044" y="1.67" class="g">added</text><text x="28.056" y="1.67" class="g">with</text><text x="33.066" y="1.67" class="g">value:</text><text x="40.08" y="1.67" class="g">[complex</text><text x="49.098" y="1.67" class="g">value]</text></symbol><symbol id="15"><text y="1.67" class="f">oxana@DESKTOP-CJF4GJT</text><text x="21.042" y="1.67" class="g">:</text><text x="22.044" y="1.67" class="h">~/python-project-50</text><text x="41.082" y="1.67" class="g">$</text><text x="43.086" y="1.67" class="g">exit</text></symbol><symbol id="a"><path fill="transparent" d="M0 0h120v30H0z"/></symbol><symbol id="b"><path fill="#6f7683" d="M0 0h1.102v2.171H0z"/></symbol></defs><path class="a" d="M0 0h120v65.13H0z"/><g style="animation-duration:16.079383s;animation-iteration-count:infinite;animation-name:k;animation-timing-function:steps(1,end)"><svg width="1800"><svg><use xlink:href="#a"/><use xlink:href="#b" x="-.004"/></svg><svg x="120"><use xlink:href="#a"/><use xlink:href="#b" x="42.996"/><use xlink:href="#1"/></svg><svg x="240"><use xlink:href="#a"/><use xlink:href="#b" x="82.996"/><text y="1.67" class="f">oxana@DESKTOP-CJF4GJT</text><text x="21.042" y="1.67" class="g">:</text><text x="22.044" y="1.67" class="h">~/python-project-50</text><text x="41.082" y="1.67" class="g">$</text><text x="43.086" y="1.67" class="g">uv</text><text x="46.092" y="1.67" class="g">run</text><text x="50.1" y="1.67" class="g">gendiff</text><text x="58.116" y="1.67" class="g">--format</text><text x="67.134" y="1.67" class="g">plain</text><text x="73.146" y="1.67" class="g">&apos;gendiff/f</text></svg><svg x="360"><use xlink:href="#a"/><use xlink:href="#b" x="98.996"/><text y="1.67" class="f">oxana@DESKTOP-CJF4GJT</text><text x="21.042" y="1.67" class="g">:</text><text x="22.044" y="1.67" class="h">~/python-project-50</text><text x="41.082" y="1.67" class="g">$</text><text x="43.086" y="1.67" class="g">uv</text><text x="46.092" y="1.67" class="g">run</text><text x="50.1" y="1.67" class="g">gendiff</text><text x="58.116" y="1.67" class="g">--format</text><text x="67.134" y="1.67" class="g">plain</text><text x="73.146" y="1.67" class="g">&apos;gendiff/files/file1.json&apos;</text></svg><svg x="480"><use xlink:href="#a"/><use xlink:href="#b" x="106.996"/><text y="1.67" class="f">oxana@DESKTOP-CJF4GJT</text><text x="21.042" y="1.67" class="g">:</text><text x="22.044" y="1.67" class="h">~/python-project-50</text><text x="41.082" y="1.67" class="g">$</text><text x="43.086" y="1.67" class="g">uv</text><text x="46.092" y="1.67" class="g">run</text><text x="50.1" y="1.67" class="g">gendiff</text><text x="58.116" y="1.67" class="g">--format</text><text x="67.134" y="1.67" class="g">plain</text><text x="73.146" y="1.67" class="g">&apos;gendiff/files/file1.json&apos;</text><text x="100.2" y="1.67" class="g">&apos;gendif</text></svg><svg x="600"><use xlink:href="#a"/><use xlink:href="#b" x="5.996" y="2.146"/><use xlink:href="#2"/><use xlink:href="#3" y="2.171"/></svg><svg x="720"><use xlink:href="#a"/><use xlink:href="#b" x="-.004" y="4.317"/><use xlink:href="#2"/><use xlink:href="#3" y="2.171"/></svg><svg x="840"><use xlink:href="#a"/><use xlink:href="#b" x="-.004" y="28.198"/><use xlink:href="#2"/><use xlink:href="#3" y="2.171"/><use xlink:href="#4" y="4.342"/><use xlink:href="#5" y="6.513"/><use xlink:href="#6" y="8.684"/><use xlink:href="#7" y="10.855"/><use xlink:href="#8" y="13.026"/><use xlink:href="#9" y="15.197"/><use xlink:href="#10" y="17.368"/><use xlink:href="#11" y="19.539"/><use xlink:href="#12" y="21.71"/><use xlink:href="#13" y="23.881"/><use xlink:href="#14" y="26.052"/></svg><svg x="960"><use xlink:href="#a"/><use xlink:href="#b" x="42.996" y="28.198"/><use xlink:href="#2"/><use xlink:href="#3" y="2.171"/><use xlink:href="#4" y="4.342"/><use xlink:href="#5" y="6.513"/><use xlink:href="#6" y="8.684"/><use xlink:href="#7" y="10.855"/><use xlink:href="#8" y="13.026"/><use xlink:href="#9" y="15.197"/><use xlink:href="#10" y="17.368"/><use xlink:href="#11" y="19.539"/><use xlink:href="#12" y="21.71"/><use xlink:href="#13" y="23.881"/><use xlink:href="#14" y="26.052"/><use xlink:href="#1" y="28.223"/></svg><svg x="1080"><use xlink:href="#a"/><use xlink:href="#b" x="43.996" y="28.198"/><use xlink:href="#2"/><use xlink:href="#3" y="2.171"/><use xlink:href="#4" y="4.342"/><use xlink:href="#5" y="6.513"/><use xlink:href="#6" y="8.684"/><use xlink:href="#7" y="10.855"/><use xlink:href="#8" y="13.026"/><use xlink:href="#9" y="15.197"/><use xlink:href="#10" y="17.368"/><use xlink:href="#11" y="19.539"/><use xlink:href="#12" y="21.71"/><use xlink:href="#13" y="23.881"/><use xlink:href="#14" y="26.052"/><text y="29.893" class="f">oxana@DESKTOP-CJF4GJT</text><text x="21.042" y="29.893" class="g">:</text><text x="22.044" y="29.893" class="h">~/python-project-50</text><text x="41.082" y="29.893" class="g">$</text><text x="43.086" y="29.893" class="g">e</text></svg><svg x="1200"><use xlink:href="#a"/><use xlink:href="#b" x="44.996" y="28.198"/><use xlink:href="#2"/><use xlink:href="#3" y="2.171"/><use xlink:href="#4" y="4.342"/><use xlink:href="#5" y="6.513"/><use xlink:href="#6" y="8.684"/><use xlink:href="#7" y="10.855"/><use xlink:href="#8" y="13.026"/><use xlink:href="#9" y="15.197"/><use xlink:href="#10" y="17.368"/><use xlink:href="#11" y="19.539"/><use xlink:href="#12" y="21.71"/><use xlink:href="#13" y="23.881"/><use xlink:href="#14" y="26.052"/><text y="29.893" class="f">oxana@DESKTOP-CJF4GJT</text><text x="21.042" y="29.893" class="g">:</text><text x="22.044" y="29.893" class="h">~/python-project-50</text><text x="41.082" y="29.893" class="g">$</text><text x="43.086" y="29.893" class="g">ex</text></svg><svg x="1320"><use xlink:href="#a"/><use xlink:href="#b" x="45.996" y="28.198"/><use xlink:href="#2"/><use xlink:href="#3" y="2.171"/><use xlink:href="#4" y="4.342"/><use xlink:href="#5" y="6.513"/><use xlink:href="#6" y="8.684"/><use xlink:href="#7" y="10.855"/><use xlink:href="#8" y="13.026"/><use xlink:href="#9" y="15.197"/><use xlink:href="#10" y="17.368"/><use xlink:href="#11" y="19.539"/><use xlink:href="#12" y="21.71"/><use xlink:href="#13" y="23.881"/><use xlink:href="#14" y="26.052"/><text y="29.893" class="f">oxana@DESKTOP-CJF4GJT</text><text x="21.042" y="29.893" class="g">:</text><text x="22.044" y="29.893" class="h">~/python-project-50</text><text x="41.082" y="29.893" class="g">$</text><text x="43.086" y="29.893" class="g">exi</text></svg><svg x="1440"><use xlink:href="#a"/><use xlink:href="#b" x="46.996" y="28.198"/><use xlink:href="#2"/><use xlink:href="#3" y="2.171"/><use xlink:href="#4" y="4.342"/><use xlink:href="#5" y="6.513"/><use xlink:href="#6" y="8.684"/><use xlink:href="#7" y="10.855"/><use xlink:href="#8" y="13.026"/><use xlink:href="#9" y="15.197"/><use xlink:href="#10" y="17.368"/><use xlink:href="#11" y="19.539"/><use xlink:href="#12" y="21.71"/><use xlink:href="#13" y="23.881"/><use xlink:href="#14" y="26.052"/><use xlink:href="#15" y="28.223"/></svg><svg x="1560"><use xlink:href="#a"/><use xlink:href="#b" x="-.004" y="30.369"/><use xlink:href="#2"/><use xlink:href="#3" y="2.171"/><use xlink:href="#4" y="4.342"/><use xlink:href="#5" y="6.513"/><use xlink:href="#6" y="8.684"/><use xlink:href="#7" y="10.855"/><use xlink:href="#8" y="13.026"/><use xlink:href="#9" y="15.197"/><use xlink:href="#10" y="17.368"/><use xlink:href="#11" y="19.539"/><use xlink:href="#12" y="21.71"/><use xlink:href="#13" y="23.881"/><use xlink:href="#14" y="26.052"/><use xlink:href="#15" y="28.223"/></svg><svg x="1680"><use xlink:href="#a"/><use xlink:href="#b" x="-.004" y="32.54"/><use xlink:href="#2"/><use xlink:href="#3" y="2.171"/><use xlink:href="#4" y="4.342"/><use xlink:href="#5" y="6.513"/><use xlink:href="#6" y="8.684"/><use xlink:href="#7" y="10.855"/><use xlink:href="#8" y="13.026"/><use xlink:href="#9" y="15.197"/><use xlink:href="#10" y="17.368"/><use xlink:href="#11" y="19.539"/><use xlink:href="#12" y="21.71"/><use xlink:href="#13" y="23.881"/><use xlink:href="#14" y="26.052"/><use xlink:href="#15" y="28.223"/><text y="32.064" class="g">exit</text></svg></svg></g></g></svg></svg>