<svg xmlns="http://www.w3.org/2000/svg" xmlns:xlink="http://www.w3.org/1999/xlink" width="1240" height="711.3"><rect width="1240" height="711.3" rx="5" ry="5" class="a"/><svg y="0%" x="0%"><circle cx="20" cy="20" r="6" fill="#ff5f58"/><circle cx="40" cy="20" r="6" fill="#ffbd2e"/><circle cx="60" cy="20" r="6" fill="#18c132"/></svg><svg height="651.3" viewBox="0 0 120 65.13" width="1200" x="15" xmlns="http://www.w3.org/2000/svg" xmlns:xlink="http://www.w3.org/1999/xlink" y="50"><style>@keyframes k{0%{transform:translateX(0)}.1%{transform:translateX(-120px)}54.2%{transform:translateX(-600px)}63.2%{transform:translateX(-720px)}63.5%{transform:translateX(-1080px)}80.1%{transform:translateX(-1200px)}89.4%{transform:translateX(-1320px)}91.9%{transform:translateX(-1440px)}95%{transform:translateX(-1560px)}to{transform:translateX(-1800px)}}.a{fill:#282d35}.f,.g,.h{white-space:pre}.f{fill:#a8cc8c;font-weight:700}.g,.h{fill:#b9c0cb}.h{fill:#71bef2;font-weight:700}</style><g font-family="Monaco,Consolas,Menlo,'Bitstream Vera Sans Mono','Powerline Symbols',monospace" font-size="1.67"><defs><symbol id="1"><text y="1.67" class="f">oxana@DESKTOP-CJF4GJT</text><text x="21.042" y="1.67" class="g">:</text><text x="22.044" y="1.67" class="h">~/python-project-50</text><text x="41.082" y="1.67" class="g">$</text></symbol><symbol id="2"><text y="1.67" class="f">oxana@DESKTOP-CJF4GJT</text><text x="21.042" y="1.67" class="g">:</text><text x="22.044" y="1.67" class="h">~/python-project-50</text><text x="41.082" y="1.67" class="g">$</text><text x="43.086" y="1.67" class="g">gendiff</text><text x="51.102" y="1.67" class="g">&apos;gendiff/files/file1.json&apos;</text><text x="78.156" y="1.67" class="g">&apos;gendiff/files/file2.json&apos;</text></symbol><symbol id="3"><text y="1.67" class="g">{&apos;</text><text x="4.008" y="1.67" class="g">host&apos;:</text><text x="11.022" y="1.67" class="g">&apos;hexlet.io&apos;,</text></symbol><symbol id="4"><text x="1.002" y="1.67" class="g">&apos;+</text><text x="4.008" y="1.67" class="g">timeout&apos;:</text><text x="14.028" y="1.67" class="g">20,</text></symbol><symbol id="5"><text x="1.002" y="1.67" class="g">&apos;+</text><text x="4.008" y="1.67" class="g">verbose&apos;:</text><text x="14.028" y="1.67" class="g">True,</text></symbol><symbol id="6"><text x="1.002" y="1.67" class="g">&apos;-</text><text x="4.008" y="1.67" class="g">follow&apos;:</text><text x="13.026" y="1.67" class="g">False,</text></symbol><symbol id="7"><text x="1.002" y="1.67" class="g">&apos;-</text><text x="4.008" y="1.67" class="g">proxy&apos;:</text><text x="12.024" y="1.67" class="g">&apos;123.234.53.22&apos;,</text></symbol><symbol id="8"><text x="1.002" y="1.67" class="g">&apos;-</text><text x="4.008" y="1.67" class="g">timeout&apos;:</text><text x="14.028" y="1.67" class="g">50}</text></symbol><symbol id="9"><text y="1.67" class="f">oxana@DESKTOP-CJF4GJT</text><text x="21.042" y="1.67" class="g">:</text><text x="22.044" y="1.67" class="h">~/python-project-50</text><text x="41.082" y="1.67" class="g">$</text><text x="43.086" y="1.67" class="g">exit</text></symbol><symbol id="a"><path fill="transparent" d="M0 0h120v30H0z"/></symbol><symbol id="b"><path fill="#6f7683" d="M0 0h1.102v2.171H0z"/></symbol></defs><path class="a" d="M0 0h120v65.13H0z"/><g style="animation-duration:11.950557s;animation-iteration-count:infinite;animation-name:k;animation-timing-function:steps(1,end)"><svg width="1920"><svg><use xlink:href="#a"/><use xlink:href="#b" x="-.004"/></svg><svg x="120"><use xlink:href="#a"/><use xlink:href="#b" x="42.996"/><use xlink:href="#1"/></svg><svg x="240"><use xlink:href="#a"/><use xlink:href="#b" x="58.996"/><text y="1.67" class="f">oxana@DESKTOP-CJF4GJT</text><text x="21.042" y="1.67" class="g">:</text><text x="22.044" y="1.67" class="h">~/python-project-50</text><text x="41.082" y="1.67" class="g">$</text><text x="43.086" y="1.67" class="g">gendiff</text><text x="51.102" y="1.67" class="g">&apos;gendiff</text></svg><svg x="360"><use xlink:href="#a"/><use xlink:href="#b" x="66.996"/><text y="1.67" class="f">oxana@DESKTOP-CJF4GJT</text><text x="21.042" y="1.67" class="g">:</text><text x="22.044" y="1.67" class="h">~/python-project-50</text><text x="41.082" y="1.67" class="g">$</text><text x="43.086" y="1.67" class="g">gendiff</text><text x="51.102" y="1.67" class="g">&apos;gendiff/files/f</text></svg><svg x="480"><use xlink:href="#a"/><use xlink:href="#b" x="90.996"/><text y="1.67" class="f">oxana@DESKTOP-CJF4GJT</text><text x="21.042" y="1.67" class="g">:</text><text x="22.044" y="1.67" class="h">~/python-project-50</text><text x="41.082" y="1.67" class="g">$</text><text x="43.086" y="1.67" class="g">gendiff</text><text x="51.102" y="1.67" class="g">&apos;gendiff/files/file1.json&apos;</text><text x="78.156" y="1.67" class="g">&apos;gendiff/file</text></svg><svg x="600"><use xlink:href="#a"/><use xlink:href="#b" x="103.996"/><use xlink:href="#2"/></svg><svg x="720"><use xlink:href="#a"/><use xlink:href="#b" x="-.004" y="2.146"/><use xlink:href="#2"/></svg><svg x="840"><use xlink:href="#a"/><use xlink:href="#b" x=".996" y="10.83"/><use xlink:href="#2"/><use xlink:href="#3" y="2.171"/><use xlink:href="#4" y="4.342"/><use xlink:href="#5" y="6.513"/><use xlink:href="#6" y="8.684"/></svg><svg x="960"><use xlink:href="#a"/><use xlink:href="#b" x="-.004" y="15.172"/><use xlink:href="#2"/><use xlink:href="#3" y="2.171"/><use xlink:href="#4" y="4.342"/><use xlink:href="#5" y="6.513"/><use xlink:href="#6" y="8.684"/><use xlink:href="#7" y="10.855"/><use xlink:href="#8" y="13.026"/></svg><svg x="1080"><use xlink:href="#a"/><use xlink:href="#b" x="42.996" y="15.172"/><use xlink:href="#2"/><use xlink:href="#3" y="2.171"/><use xlink:href="#4" y="4.342"/><use xlink:href="#5" y="6.513"/><use xlink:href="#6" y="8.684"/><use xlink:href="#7" y="10.855"/><use xlink:href="#8" y="13.026"/><use xlink:href="#1" y="15.197"/></svg><svg x="1200"><use xlink:href="#a"/><use xlink:href="#b" x="43.996" y="15.172"/><use xlink:href="#2"/><use xlink:href="#3" y="2.171"/><use xlink:href="#4" y="4.342"/><use xlink:href="#5" y="6.513"/><use xlink:href="#6" y="8.684"/><use xlink:href="#7" y="10.855"/><use xlink:href="#8" y="13.026"/><text y="16.867" class="f">oxana@DESKTOP-CJF4GJT</text><text x="21.042" y="16.867" class="g">:</text><text x="22.044" y="16.867" class="h">~/python-project-50</text><text x="41.082" y="16.867" class="g">$</text><text x="43.086" y="16.867" class="g">e</text></svg><svg x="1320"><use xlink:href="#a"/><use xlink:href="#b" x="44.996" y="15.172"/><use xlink:href="#2"/><use xlink:href="#3" y="2.171"/><use xlink:href="#4" y="4.342"/><use xlink:href="#5" y="6.513"/><use xlink:href="#6" y="8.684"/><use xlink:href="#7" y="10.855"/><use xlink:href="#8" y="13.026"/><text y="16.867" class="f">oxana@DESKTOP-CJF4GJT</text><text x="21.042" y="16.867" class="g">:</text><text x="22.044" y="16.867" class="h">~/python-project-50</text><text x="41.082" y="16.867" class="g">$</text><text x="43.086" y="16.867" class="g">ex</text></svg><svg x="1440"><use xlink:href="#a"/><use xlink:href="#b" x="45.996" y="15.172"/><use xlink:href="#2"/><use xlink:href="#3" y="2.171"/><use xlink:href="#4" y="4.342"/><use xlink:href="#5" y="6.513"/><use xlink:href="#6" y="8.684"/><use xlink:href="#7" y="10.855"/><use xlink:href="#8" y="13.026"/><text y="16.867" class="f">oxana@DESKTOP-CJF4GJT</text><text x="21.042" y="16.867" class="g">:</text><text x="22.044" y="16.867" class="h">~/python-project-50</text><text x="41.082" y="16.867" class="g">$</text><text x="43.086" y="16.867" class="g">exi</text></svg><svg x="1560"><use xlink:href="#a"/><use xlink:href="#b" x="46.996" y="15.172"/><use xlink:href="#2"/><use xlink:href="#3" y="2.171"/><use xlink:href="#4" y="4.342"/><use xlink:href="#5" y="6.513"/><use xlink:href="#6" y="8.684"/><use xlink:href="#7" y="10.855"/><use xlink:href="#8" y="13.026"/><use xlink:href="#9" y="15.197"/></svg><svg x="1680"><use xlink:href="#a"/><use xlink:href="#b" x="-.004" y="17.343"/><use xlink:href="#2"/><use xlink:href="#3" y="2.171"/><use xlink:href="#4" y="4.342"/><use xlink:href="#5" y="6.513"/><use xlink:href="#6" y="8.684"/><use xlink:href="#7" y="10.855"/><use xlink:href="#8" y="13.026"/><use xlink:href="#9" y="15.197"/></svg><svg x="1800"><use xlink:href="#a"/><use xlink:href="#b" x="-.004" y="19.514"/><use xlink:href="#2"/><use xlink:href="#3" y="2.171"/><use xlink:href="#4" y="4.342"/><use xlink:href="#5" y="6.513"/><use xlink:href="#6" y="8.684"/><use xlink:href="#7" y="10.855"/><use xlink:href="#8" y="13.026"/><use xlink:href="#9" y="15.197"/><text y="19.038" class="g">exit</text></svg></svg></g></g></svg></svg>