<svg xmlns="http://www.w3.org/2000/svg" xmlns:xlink="http://www.w3.org/1999/xlink" width="1240" height="711.3"><rect width="1240" height="711.3" rx="5" ry="5" class="a"/><svg y="0%" x="0%"><circle cx="20" cy="20" r="6" fill="#ff5f58"/><circle cx="40" cy="20" r="6" fill="#ffbd2e"/><circle cx="60" cy="20" r="6" fill="#18c132"/></svg><svg height="651.3" viewBox="0 0 120 65.13" width="1200" x="15" xmlns="http://www.w3.org/2000/svg" xmlns:xlink="http://www.w3.org/1999/xlink" y="50"><style>@keyframes k{0%{transform:translateX(0)}.2%{transform:translateX(-120px)}15%{transform:translateX(-720px)}32.8%{transform:translateX(-840px)}33.2%{transform:translateX(-960px)}33.3%{transform:translateX(-1080px)}56.1%{transform:translateX(-1200px)}81.5%{transform:translateX(-1320px)}85.2%{transform:translateX(-1440px)}91.9%{transform:translateX(-1560px)}to{transform:translateX(-1800px)}}.a{fill:#282d35}.f,.g,.h{white-space:pre}.f{fill:#a8cc8c;font-weight:700}.g,.h{fill:#b9c0cb}.h{fill:#71bef2;font-weight:700}</style><g font-family="Monaco,Consolas,Menlo,'Bitstream Vera Sans Mono','Powerline Symbols',monospace" font-size="1.67"><defs><symbol id="1"><text y="1.67" class="f">oxana@DESKTOP-CJF4GJT</text><text x="21.042" y="1.67" class="g">:</text><text x="22.044" y="1.67" class="h">~/python-project-50</text><text x="41.082" y="1.67" class="g">$</text></symbol><symbol id="2"><text y="1.67" class="f">oxana@DESKTOP-CJF4GJT</text><text x="21.042" y="1.67" class="g">:</text><text x="22.044" y="1.67" class="h">~/python-project-50</text><text x="41.082" y="1.67" class="g">$</text><text x="43.086" y="1.67" class="g">uv</text><text x="46.092" y="1.67" class="g">run</text><text x="50.1" y="1.67" class="g">gendiff</text><text x="58.116" y="1.67" class="g">--format</text><text x="67.134" y="1.67" class="g">stylish</text><text x="75.15" y="1.67" class="g">&apos;gendiff/files/file1.json&apos;</text><text x="102.204" y="1.67" class="g">&apos;gendiff/files/fil</text></symbol><symbol id="3"><text y="1.67" class="g">e2.json&apos;</text></symbol><symbol id="4"><text x="12.024" y="1.67" class="g">}</text></symbol><symbol id="5"><text x="12.024" y="1.67" class="g">key:</text><text x="17.034" y="1.67" class="g">value</text></symbol><symbol id="6"><text x="10.02" y="1.67" class="g">+</text><text x="12.024" y="1.67" class="g">ops:</text><text x="17.034" y="1.67" class="g">vops</text></symbol><symbol id="7"><text x="8.016" y="1.67" class="g">}</text></symbol><symbol id="8"><text x="4.008" y="1.67" class="g">}</text></symbol><symbol id="9"><text x="4.008" y="1.67" class="g">group1:</text><text x="12.024" y="1.67" class="g">{</text></symbol><symbol id="10"><text x="6.012" y="1.67" class="g">-</text><text x="8.016" y="1.67" class="g">baz:</text><text x="13.026" y="1.67" class="g">bas</text></symbol><symbol id="11"><text x="6.012" y="1.67" class="g">+</text><text x="8.016" y="1.67" class="g">baz:</text><text x="13.026" y="1.67" class="g">bars</text></symbol><symbol id="12"><text x="8.016" y="1.67" class="g">foo:</text><text x="13.026" y="1.67" class="g">bar</text></symbol><symbol id="13"><text x="6.012" y="1.67" class="g">-</text><text x="8.016" y="1.67" class="g">nest:</text><text x="14.028" y="1.67" class="g">{</text></symbol><symbol id="14"><text x="6.012" y="1.67" class="g">+</text><text x="8.016" y="1.67" class="g">nest:</text><text x="14.028" y="1.67" class="g">str</text></symbol><symbol id="15"><text x="2.004" y="1.67" class="g">-</text><text x="4.008" y="1.67" class="g">group2:</text><text x="12.024" y="1.67" class="g">{</text></symbol><symbol id="16"><text x="8.016" y="1.67" class="g">abc:</text><text x="13.026" y="1.67" class="g">12345</text></symbol><symbol id="17"><text x="8.016" y="1.67" class="g">deep:</text><text x="14.028" y="1.67" class="g">{</text></symbol><symbol id="18"><text x="12.024" y="1.67" class="g">id:</text><text x="16.032" y="1.67" class="g">45</text></symbol><symbol id="19"><text x="2.004" y="1.67" class="g">+</text><text x="4.008" y="1.67" class="g">group3:</text><text x="12.024" y="1.67" class="g">{</text></symbol><symbol id="20"><text x="12.024" y="1.67" class="g">id:</text><text x="16.032" y="1.67" class="g">{</text></symbol><symbol id="21"><text x="16.032" y="1.67" class="g">number:</text><text x="24.048" y="1.67" class="g">45</text></symbol><symbol id="22"><text x="8.016" y="1.67" class="g">fee:</text><text x="13.026" y="1.67" class="g">100500</text></symbol><symbol id="23"><text y="1.67" class="g">}</text></symbol><symbol id="24"><text y="1.67" class="f">oxana@DESKTOP-CJF4GJT</text><text x="21.042" y="1.67" class="g">:</text><text x="22.044" y="1.67" class="h">~/python-project-50</text><text x="41.082" y="1.67" class="g">$</text><text x="43.086" y="1.67" class="g">exit</text></symbol><symbol id="a"><path fill="transparent" d="M0 0h120v30H0z"/></symbol><symbol id="b"><path fill="#6f7683" d="M0 0h1.102v2.171H0z"/></symbol></defs><path class="a" d="M0 0h120v65.13H0z"/><g style="animation-duration:7.432807s;animation-iteration-count:infinite;animation-name:k;animation-timing-function:steps(1,end)"><svg width="1920"><svg><use xlink:href="#a"/><use xlink:href="#b" x="-.004"/></svg><svg x="120"><use xlink:href="#a"/><use xlink:href="#b" x="42.996"/><use xlink:href="#1"/></svg><svg x="240"><use xlink:href="#a"/><use xlink:href="#b" x="58.996"/><text y="1.67" class="f">oxana@DESKTOP-CJF4GJT</text><text x="21.042" y="1.67" class="g">:</text><text x="22.044" y="1.67" class="h">~/python-project-50</text><text x="41.082" y="1.67" class="g">$</text><text x="43.086" y="1.67" class="g">uv</text><text x="46.092" y="1.67" class="g">run</text><text x="50.1" y="1.67" class="g">gendiff</text><text x="58.116" y="1.67" class="g">-</text></svg><svg x="360"><use xlink:href="#a"/><use xlink:href="#b" x="66.996"/><text y="1.67" class="f">oxana@DESKTOP-CJF4GJT</text><text x="21.042" y="1.67" class="g">:</text><text x="22.044" y="1.67" class="h">~/python-project-50</text><text x="41.082" y="1.67" class="g">$</text><text x="43.086" y="1.67" class="g">uv</text><text x="46.092" y="1.67" class="g">run</text><text x="50.1" y="1.67" class="g">gendiff</text><text x="58.116" y="1.67" class="g">--format</text></svg><svg x="480"><use xlink:href="#a"/><use xlink:href="#b" x="106.996"/><text y="1.67" class="f">oxana@DESKTOP-CJF4GJT</text><text x="21.042" y="1.67" class="g">:</text><text x="22.044" y="1.67" class="h">~/python-project-50</text><text x="41.082" y="1.67" class="g">$</text><text x="43.086" y="1.67" class="g">uv</text><text x="46.092" y="1.67" class="g">run</text><text x="50.1" y="1.67" class="g">gendiff</text><text x="58.116" y="1.67" class="g">--format</text><text x="67.134" y="1.67" class="g">stylish</text><text x="75.15" y="1.67" class="g">&apos;gendiff/files/file1.json&apos;</text><text x="102.204" y="1.67" class="g">&apos;gend</text></svg><svg x="600"><use xlink:href="#a"/><use xlink:href="#b" x="2.996" y="2.146"/><use xlink:href="#2"/><text y="3.841" class="g">e2.</text></svg><svg x="720"><use xlink:href="#a"/><use xlink:href="#b" x="7.996" y="2.146"/><use xlink:href="#2"/><use xlink:href="#3" y="2.171"/></svg><svg x="840"><use xlink:href="#a"/><use xlink:href="#b" x="-.004" y="4.317"/><use xlink:href="#2"/><use xlink:href="#3" y="2.171"/></svg><svg x="960"><use xlink:href="#a"/><use xlink:href="#b" x="-.004" y="62.934"/><use xlink:href="#4"/><use xlink:href="#5" y="2.171"/><use xlink:href="#6" y="4.342"/><use xlink:href="#7" y="6.513"/><use xlink:href="#8" y="8.684"/><use xlink:href="#9" y="10.855"/><use xlink:href="#10" y="13.026"/><use xlink:href="#11" y="15.197"/><use xlink:href="#12" y="17.368"/><use xlink:href="#13" y="19.539"/><use xlink:href="#5" y="21.71"/><use xlink:href="#7" y="23.881"/><use xlink:href="#14" y="26.052"/><use xlink:href="#8" y="28.223"/><use xlink:href="#15" y="30.394"/><use xlink:href="#16" y="32.565"/><use xlink:href="#17" y="34.736"/><use xlink:href="#18" y="36.907"/><use xlink:href="#7" y="39.078"/><use xlink:href="#8" y="41.249"/><use xlink:href="#19" y="43.42"/><use xlink:href="#17" y="45.591"/><use xlink:href="#20" y="47.762"/><use xlink:href="#21" y="49.933"/><use xlink:href="#4" y="52.104"/><use xlink:href="#7" y="54.275"/><use xlink:href="#22" y="56.446"/><use xlink:href="#8" y="58.617"/><use xlink:href="#23" y="60.788"/></svg><svg x="1080"><use xlink:href="#a"/><use xlink:href="#b" x="42.996" y="62.934"/><use xlink:href="#4"/><use xlink:href="#5" y="2.171"/><use xlink:href="#6" y="4.342"/><use xlink:href="#7" y="6.513"/><use xlink:href="#8" y="8.684"/><use xlink:href="#9" y="10.855"/><use xlink:href="#10" y="13.026"/><use xlink:href="#11" y="15.197"/><use xlink:href="#12" y="17.368"/><use xlink:href="#13" y="19.539"/><use xlink:href="#5" y="21.71"/><use xlink:href="#7" y="23.881"/><use xlink:href="#14" y="26.052"/><use xlink:href="#8" y="28.223"/><use xlink:href="#15" y="30.394"/><use xlink:href="#16" y="32.565"/><use xlink:href="#17" y="34.736"/><use xlink:href="#18" y="36.907"/><use xlink:href="#7" y="39.078"/><use xlink:href="#8" y="41.249"/><use xlink:href="#19" y="43.42"/><use xlink:href="#17" y="45.591"/><use xlink:href="#20" y="47.762"/><use xlink:href="#21" y="49.933"/><use xlink:href="#4" y="52.104"/><use xlink:href="#7" y="54.275"/><use xlink:href="#22" y="56.446"/><use xlink:href="#8" y="58.617"/><use xlink:href="#23" y="60.788"/><use xlink:href="#1" y="62.959"/></svg><svg x="1200"><use xlink:href="#a"/><use xlink:href="#b" x="43.996" y="62.934"/><use xlink:href="#4"/><use xlink:href="#5" y="2.171"/><use xlink:href="#6" y="4.342"/><use xlink:href="#7" y="6.513"/><use xlink:href="#8" y="8.684"/><use xlink:href="#9" y="10.855"/><use xlink:href="#10" y="13.026"/><use xlink:href="#11" y="15.197"/><use xlink:href="#12" y="17.368"/><use xlink:href="#13" y="19.539"/><use xlink:href="#5" y="21.71"/><use xlink:href="#7" y="23.881"/><use xlink:href="#14" y="26.052"/><use xlink:href="#8" y="28.223"/><use xlink:href="#15" y="30.394"/><use xlink:href="#16" y="32.565"/><use xlink:href="#17" y="34.736"/><use xlink:href="#18" y="36.907"/><use xlink:href="#7" y="39.078"/><use xlink:href="#8" y="41.249"/><use xlink:href="#19" y="43.42"/><use xlink:href="#17" y="45.591"/><use xlink:href="#20" y="47.762"/><use xlink:href="#21" y="49.933"/><use xlink:href="#4" y="52.104"/><use xlink:href="#7" y="54.275"/><use xlink:href="#22" y="56.446"/><use xlink:href="#8" y="58.617"/><use xlink:href="#23" y="60.788"/><text y="64.629" class="f">oxana@DESKTOP-CJF4GJT</text><text x="21.042" y="64.629" class="g">:</text><text x="22.044" y="64.629" class="h">~/python-project-50</text><text x="41.082" y="64.629" class="g">$</text><text x="43.086" y="64.629" class="g">e</text></svg><svg x="1320"><use xlink:href="#a"/><use xlink:href="#b" x="44.996" y="62.934"/><use xlink:href="#4"/><use xlink:href="#5" y="2.171"/><use xlink:href="#6" y="4.342"/><use xlink:href="#7" y="6.513"/><use xlink:href="#8" y="8.684"/><use xlink:href="#9" y="10.855"/><use xlink:href="#10" y="13.026"/><use xlink:href="#11" y="15.197"/><use xlink:href="#12" y="17.368"/><use xlink:href="#13" y="19.539"/><use xlink:href="#5" y="21.71"/><use xlink:href="#7" y="23.881"/><use xlink:href="#14" y="26.052"/><use xlink:href="#8" y="28.223"/><use xlink:href="#15" y="30.394"/><use xlink:href="#16" y="32.565"/><use xlink:href="#17" y="34.736"/><use xlink:href="#18" y="36.907"/><use xlink:href="#7" y="39.078"/><use xlink:href="#8" y="41.249"/><use xlink:href="#19" y="43.42"/><use xlink:href="#17" y="45.591"/><use xlink:href="#20" y="47.762"/><use xlink:href="#21" y="49.933"/><use xlink:href="#4" y="52.104"/><use xlink:href="#7" y="54.275"/><use xlink:href="#22" y="56.446"/><use xlink:href="#8" y="58.617"/><use xlink:href="#23" y="60.788"/><text y="64.629" class="f">oxana@DESKTOP-CJF4GJT</text><text x="21.042" y="64.629" class="g">:</text><text x="22.044" y="64.629" class="h">~/python-project-50</text><text x="41.082" y="64.629" class="g">$</text><text x="43.086" y="64.629" class="g">ex</text></svg><svg x="1440"><use xlink:href="#a"/><use xlink:href="#b" x="45.996" y="62.934"/><use xlink:href="#4"/><use xlink:href="#5" y="2.171"/><use xlink:href="#6" y="4.342"/><use xlink:href="#7" y="6.513"/><use xlink:href="#8" y="8.684"/><use xlink:href="#9" y="10.855"/><use xlink:href="#10" y="13.026"/><use xlink:href="#11" y="15.197"/><use xlink:href="#12" y="17.368"/><use xlink:href="#13" y="19.539"/><use xlink:href="#5" y="21.71"/><use xlink:href="#7" y="23.881"/><use xlink:href="#14" y="26.052"/><use xlink:href="#8" y="28.223"/><use xlink:href="#15" y="30.394"/><use xlink:href="#16" y="32.565"/><use xlink:href="#17" y="34.736"/><use xlink:href="#18" y="36.907"/><use xlink:href="#7" y="39.078"/><use xlink:href="#8" y="41.249"/><use xlink:href="#19" y="43.42"/><use xlink:href="#17" y="45.591"/><use xlink:href="#20" y="47.762"/><use xlink:href="#21" y="49.933"/><use xlink:href="#4" y="52.104"/><use xlink:href="#7" y="54.275"/><use xlink:href="#22" y="56.446"/><use xlink:href="#8" y="58.617"/><use xlink:href="#23" y="60.788"/><text y="64.629" class="f">oxana@DESKTOP-CJF4GJT</text><text x="21.042" y="64.629" class="g">:</text><text x="22.044" y="64.629" class="h">~/python-project-50</text><text x="41.082" y="64.629" class="g">$</text><text x="43.086" y="64.629" class="g">exi</text></svg><svg x="1560"><use xlink:href="#a"/><use xlink:href="#b" x="46.996" y="62.934"/><use xlink:href="#4"/><use xlink:href="#5" y="2.171"/><use xlink:href="#6" y="4.342"/><use xlink:href="#7" y="6.513"/><use xlink:href="#8" y="8.684"/><use xlink:href="#9" y="10.855"/><use xlink:href="#10" y="13.026"/><use xlink:href="#11" y="15.197"/><use xlink:href="#12" y="17.368"/><use xlink:href="#13" y="19.539"/><use xlink:href="#5" y="21.71"/><use xlink:href="#7" y="23.881"/><use xlink:href="#14" y="26.052"/><use xlink:href="#8" y="28.223"/><use xlink:href="#15" y="30.394"/><use xlink:href="#16" y="32.565"/><use xlink:href="#17" y="34.736"/><use xlink:href="#18" y="36.907"/><use xlink:href="#7" y="39.078"/><use xlink:href="#8" y="41.249"/><use xlink:href="#19" y="43.42"/><use xlink:href="#17" y="45.591"/><use xlink:href="#20" y="47.762"/><use xlink:href="#21" y="49.933"/><use xlink:href="#4" y="52.104"/><use xlink:href="#7" y="54.275"/><use xlink:href="#22" y="56.446"/><use xlink:href="#8" y="58.617"/><use xlink:href="#23" y="60.788"/><use xlink:href="#24" y="62.959"/></svg><svg x="1680"><use xlink:href="#a"/><use xlink:href="#b" x="-.004" y="62.934"/><use xlink:href="#5"/><use xlink:href="#6" y="2.171"/><use xlink:href="#7" y="4.342"/><use xlink:href="#8" y="6.513"/><use xlink:href="#9" y="8.684"/><use xlink:href="#10" y="10.855"/><use xlink:href="#11" y="13.026"/><use xlink:href="#12" y="15.197"/><use xlink:href="#13" y="17.368"/><use xlink:href="#5" y="19.539"/><use xlink:href="#7" y="21.71"/><use xlink:href="#14" y="23.881"/><use xlink:href="#8" y="26.052"/><use xlink:href="#15" y="28.223"/><use xlink:href="#16" y="30.394"/><use xlink:href="#17" y="32.565"/><use xlink:href="#18" y="34.736"/><use xlink:href="#7" y="36.907"/><use xlink:href="#8" y="39.078"/><use xlink:href="#19" y="41.249"/><use xlink:href="#17" y="43.42"/><use xlink:href="#20" y="45.591"/><use xlink:href="#21" y="47.762"/><use xlink:href="#4" y="49.933"/><use xlink:href="#7" y="52.104"/><use xlink:href="#22" y="54.275"/><use xlink:href="#8" y="56.446"/><use xlink:href="#23" y="58.617"/><use xlink:href="#24" y="60.788"/></svg><svg x="1800"><use xlink:href="#a"/><use xlink:href="#b" x="-.004" y="62.934"/><use xlink:href="#6"/><use xlink:href="#7" y="2.171"/><use xlink:href="#8" y="4.342"/><use xlink:href="#9" y="6.513"/><use xlink:href="#10" y="8.684"/><use xlink:href="#11" y="10.855"/><use xlink:href="#12" y="13.026"/><use xlink:href="#13" y="15.197"/><use xlink:href="#5" y="17.368"/><use xlink:href="#7" y="19.539"/><use xlink:href="#14" y="21.71"/><use xlink:href="#8" y="23.881"/><use xlink:href="#15" y="26.052"/><use xlink:href="#16" y="28.223"/><use xlink:href="#17" y="30.394"/><use xlink:href="#18" y="32.565"/><use xlink:href="#7" y="34.736"/><use xlink:href="#8" y="36.907"/><use xlink:href="#19" y="39.078"/><use xlink:href="#17" y="41.249"/><use xlink:href="#20" y="43.42"/><use xlink:href="#21" y="45.591"/><use xlink:href="#4" y="47.762"/><use xlink:href="#7" y="49.933"/><use xlink:href="#22" y="52.104"/><use xlink:href="#8" y="54.275"/><use xlink:href="#23" y="56.446"/><use xlink:href="#24" y="58.617"/><text y="62.458" class="g">exit</text></svg></svg></g></g></svg></svg>